# xmcd
#
# Track frame offsets: 
#        150
#        16248
#        34666
#        57090
#        74113
#        96048
#        114604
#        134024
#        150129
#        164506
#        197999
#
# Disc length: 2737 seconds
#
# Revision: 1
# Processed by: cddbd v1.5.2PL0 Copyright (c) Steve Scherf et al.
# Submitted via: ExactAudioCopy v0.90b4
#
DISCID=950aaf0b
DTITLE=Nick Jonas And The Administration - Who I Am
DYEAR=2010
DGENRE=Rock
TTITLE0=Rose Garden
TTITLE1=Who I Am
TTITLE2=Olive and An Arrow
TTITLE3=Conspiracy Theory
TTITLE4=In The End
TTITLE5=Last Time Around
TTITLE6=Tonight
TTITLE7=State Of Emergency
TTITLE8=Vesper's Goodbye
TTITLE9=Stronger (Back On The Ground)
TTITLE10=Data Track
EXTD=
EXTT0=
EXTT1=
EXTT2=
EXTT3=
EXTT4=
EXTT5=
EXTT6=
EXTT7=
EXTT8=
EXTT9=
EXTT10=
PLAYORDER=
